<?xml version="1.0" encoding="utf-8"?>
<!-- Generator: Adobe Illustrator 17.0.0, SVG Export Plug-In . SVG Version: 6.00 Build 0)  -->
<!DOCTYPE svg PUBLIC "-//W3C//DTD SVG 1.1//EN" "http://www.w3.org/Graphics/SVG/1.1/DTD/svg11.dtd">
<svg version="1.1" id="Calque_1" xmlns="http://www.w3.org/2000/svg" xmlns:xlink="http://www.w3.org/1999/xlink" x="0px" y="0px"
	 width="300px" height="57.81px" viewBox="0 0 300 57.81" enable-background="new 0 0 300 57.81" xml:space="preserve">
<path fill="#FFFFFF" d="M0,19.362c1.514-0.52,2.934-0.956,4.263-1.308c1.327-0.351,2.687-0.65,4.077-0.895
	c0.339-2.08,0.656-3.892,0.95-5.437c0.293-1.544,0.609-3.02,0.95-4.428c0.308-1.346,0.718-2.484,1.228-3.418
	c0.51-0.933,1.057-1.682,1.645-2.248c0.586-0.566,1.188-0.979,1.807-1.239C15.537,0.131,16.124,0,16.68,0
	c0.803,0,1.466,0.245,1.992,0.734c0.524,0.489,0.788,1.147,0.788,1.973h-0.927c0-0.551-0.178-0.986-0.533-1.308
	c-0.355-0.321-0.796-0.482-1.321-0.482c-0.463,0-0.95,0.123-1.459,0.367c-0.51,0.245-1.019,0.627-1.529,1.147
	c-0.51,0.521-0.989,1.193-1.436,2.019c-0.448,0.826-0.811,1.835-1.089,3.028c-0.341,1.376-0.657,2.799-0.95,4.267
	c-0.294,1.468-0.595,3.212-0.904,5.23C10.64,16.792,12,16.67,13.39,16.609c1.39-0.061,2.888-0.107,4.494-0.138v0.918
	c-1.514,0.031-2.988,0.085-4.425,0.161c-1.436,0.076-2.881,0.223-4.332,0.436c-0.433,2.569-0.811,5.055-1.135,7.456
	c-0.324,2.402-0.61,4.565-0.857,6.492c-0.278,2.233-0.526,4.343-0.741,6.332l-0.927-0.092c0.185-1.958,0.417-4.038,0.695-6.24
	c0.246-1.896,0.533-4.03,0.857-6.4c0.324-2.37,0.702-4.81,1.135-7.318c-1.329,0.214-2.634,0.489-3.915,0.826
	c-1.281,0.337-2.602,0.75-3.962,1.239L0,19.362z M17.606,35.604l-0.371,0.092c-0.247,0-0.417-0.306-0.51-0.918
	c-0.093-0.612-0.139-1.438-0.139-2.478c0-1.04,0.062-2.225,0.185-3.556c0.123-1.331,0.293-2.707,0.51-4.129
	c0.215-1.422,0.463-2.874,0.741-4.359c0.278-1.483,0.556-2.913,0.834-4.29c0.679-3.241,1.452-6.576,2.317-10.002l-0.88-0.229
	c-0.865,3.487-1.638,6.852-2.317,10.094c-0.278,1.407-0.556,2.852-0.834,4.336c-0.278,1.483-0.525,2.952-0.741,4.405
	c-0.216,1.453-0.394,2.837-0.533,4.152C15.73,30.037,15.66,31.23,15.66,32.3c0,1.315,0.116,2.363,0.347,3.143
	c0.232,0.78,0.641,1.17,1.228,1.17c0.278,0,0.556-0.076,0.834-0.229L17.606,35.604z M28.541,26.519
	c-1.082,0-2.078,0.214-2.989,0.642c-0.911,0.429-1.699,0.964-2.363,1.606c-0.664,0.642-1.189,1.347-1.575,2.111
	c-0.387,0.765-0.579,1.499-0.579,2.202c0,0.795,0.286,1.468,0.857,2.019c0.571,0.551,1.521,0.826,2.85,0.826
	c0.803,0,1.683-0.107,2.641-0.321l-0.185-0.918c-0.958,0.214-1.776,0.321-2.456,0.321c-0.989,0-1.699-0.184-2.131-0.551
	c-0.433-0.367-0.649-0.826-0.649-1.376c0-0.58,0.169-1.208,0.51-1.881c0.34-0.672,0.803-1.285,1.39-1.835
	c0.586-0.551,1.281-1.009,2.085-1.376c0.803-0.367,1.668-0.551,2.595-0.551c0.123,0,0.262,0.008,0.417,0.023
	c0.154,0.016,0.34,0.039,0.556,0.069c-0.216,1.407-0.494,2.982-0.834,4.726c-0.341,1.743-0.772,3.716-1.297,5.919l0.973,0.184
	c0.957-3.915,1.614-7.249,1.969-10.002c0.354-2.753,0.533-4.726,0.533-5.919c0-1.193-0.093-2.179-0.278-2.959
	c-0.185-0.78-0.425-1.399-0.718-1.858c-0.294-0.459-0.641-0.78-1.043-0.964C28.417,16.471,28,16.38,27.568,16.38
	c-0.526,0-1.043,0.122-1.552,0.367c-0.51,0.245-0.981,0.521-1.413,0.826c-0.494,0.337-0.958,0.72-1.39,1.147l0.695,0.642
	c0.401-0.367,0.803-0.703,1.205-1.009c0.34-0.245,0.725-0.482,1.158-0.711c0.432-0.229,0.864-0.344,1.297-0.344
	c0.308,0,0.609,0.085,0.904,0.252c0.293,0.169,0.548,0.444,0.765,0.826c0.215,0.382,0.386,0.902,0.51,1.56
	c0.123,0.658,0.185,1.491,0.185,2.501c0,0.581-0.023,1.224-0.069,1.927c-0.046,0.704-0.132,1.468-0.255,2.294L28.541,26.519z
	 M77.376,41.889c-2.718-0.061-5.328-0.138-7.83-0.229c-1.081-0.031-2.178-0.054-3.29-0.069c-1.112-0.015-2.201-0.038-3.267-0.069
	c-1.066-0.031-2.07-0.054-3.012-0.069c-0.942-0.015-1.768-0.023-2.479-0.023c-3.83,0-7.244,0.061-10.24,0.184
	c-2.996,0.122-5.668,0.306-8.016,0.551l3.475-22.528l-0.927-0.138l-1.853,12.158c-0.803,0.704-1.575,1.232-2.317,1.583
	c-0.741,0.353-1.328,0.528-1.761,0.528c-0.711,0-1.228-0.367-1.552-1.101c-0.324-0.734-0.486-1.636-0.486-2.707
	c0-1.345,0.232-2.753,0.695-4.221c0.463-1.468,1.097-2.691,1.9-3.67c0.71-0.795,1.313-1.322,1.807-1.583
	c0.494-0.259,0.88-0.39,1.158-0.39c0.247,0,0.44,0.085,0.579,0.252c0.139,0.168,0.255,0.344,0.347,0.528
	c0.124,0.214,0.201,0.459,0.232,0.734l0.927-0.138c-0.093-0.428-0.232-0.81-0.417-1.147c-0.155-0.275-0.364-0.535-0.625-0.78
	c-0.263-0.244-0.61-0.367-1.043-0.367c-0.433,0-0.942,0.154-1.529,0.459c-0.587,0.306-1.282,0.918-2.085,1.835
	c-0.463,0.551-0.873,1.163-1.228,1.835c-0.355,0.674-0.656,1.384-0.903,2.133c-0.247,0.75-0.433,1.514-0.556,2.294
	c-0.124,0.78-0.185,1.522-0.185,2.225c0,1.347,0.239,2.471,0.718,3.372c0.479,0.902,1.228,1.354,2.247,1.354
	c0.371,0,0.911-0.13,1.622-0.39c0.71-0.259,1.452-0.681,2.224-1.262l-1.39,9.222c-2.656,0.306-4.88,0.673-6.672,1.101
	c-1.791,0.428-3.236,0.902-4.332,1.422c-1.096,0.52-1.883,1.071-2.363,1.652c-0.479,0.58-0.718,1.193-0.718,1.835
	c0,0.581,0.178,1.155,0.533,1.721c0.356,0.566,0.834,1.124,1.436,1.675c0.602,0.551,1.274,1.085,2.016,1.606
	c0.741,0.52,1.514,1.009,2.317,1.468c1.853,1.071,3.969,2.095,6.348,3.074l2.224-14.774c2.317-0.245,4.989-0.421,8.016-0.528
	c3.027-0.107,6.487-0.161,10.379-0.161c2.842,0,5.9,0.038,9.174,0.115c3.273,0.076,6.826,0.191,10.657,0.344L77.376,41.889z
	 M25.158,48.267c0-0.52,0.216-1.032,0.649-1.537c0.433-0.505,1.158-0.98,2.178-1.422c1.019-0.444,2.356-0.849,4.008-1.216
	c1.653-0.367,3.714-0.688,6.186-0.963l-2.039,13.397c-2.07-0.856-3.907-1.743-5.514-2.661c-0.679-0.398-1.351-0.818-2.016-1.262
	c-0.664-0.444-1.251-0.902-1.761-1.376c-0.51-0.474-0.919-0.964-1.228-1.468C25.313,49.253,25.158,48.756,25.158,48.267
	 M45.452,36.063l1.714-14.453c0.371-0.306,0.811-0.603,1.32-0.895c0.51-0.291,1.027-0.436,1.552-0.436
	c0.309,0,0.618,0.084,0.927,0.252c0.308,0.168,0.571,0.459,0.788,0.872c0.215,0.413,0.394,0.979,0.533,1.698
	c0.139,0.719,0.208,1.614,0.208,2.684l0.927-0.092c0-1.346-0.116-2.432-0.348-3.258c-0.232-0.826-0.517-1.468-0.857-1.927
	c-0.34-0.459-0.703-0.765-1.089-0.918c-0.387-0.153-0.749-0.229-1.089-0.229c-0.494,0-0.966,0.107-1.413,0.321
	c-0.448,0.214-0.873,0.444-1.274,0.688l0.278-2.523l-0.973-0.138l-2.178,18.261L45.452,36.063z M61.575,26.519
	c-1.082,0-2.078,0.214-2.988,0.642c-0.911,0.429-1.699,0.964-2.363,1.606c-0.664,0.642-1.189,1.347-1.575,2.111
	c-0.387,0.765-0.579,1.499-0.579,2.202c0,0.795,0.286,1.468,0.857,2.019c0.571,0.551,1.521,0.826,2.85,0.826
	c0.803,0,1.683-0.107,2.641-0.321l-0.185-0.918c-0.958,0.214-1.776,0.321-2.456,0.321c-0.989,0-1.699-0.184-2.131-0.551
	c-0.433-0.367-0.649-0.826-0.649-1.376c0-0.58,0.169-1.208,0.51-1.881c0.34-0.672,0.803-1.285,1.39-1.835
	c0.586-0.551,1.281-1.009,2.085-1.376c0.803-0.367,1.668-0.551,2.595-0.551c0.123,0,0.262,0.008,0.417,0.023
	c0.154,0.016,0.34,0.039,0.556,0.069c-0.216,1.407-0.494,2.982-0.834,4.726c-0.341,1.743-0.772,3.716-1.297,5.919l0.973,0.184
	c0.957-3.915,1.614-7.249,1.969-10.002c0.354-2.753,0.533-4.726,0.533-5.919c0-1.193-0.093-2.179-0.278-2.959
	c-0.185-0.78-0.425-1.399-0.718-1.858c-0.294-0.459-0.641-0.78-1.043-0.964c-0.402-0.184-0.819-0.275-1.251-0.275
	c-0.526,0-1.042,0.122-1.552,0.367c-0.51,0.245-0.981,0.521-1.413,0.826c-0.494,0.337-0.958,0.72-1.39,1.147l0.695,0.642
	c0.401-0.367,0.803-0.703,1.205-1.009c0.34-0.245,0.725-0.482,1.158-0.711c0.432-0.229,0.864-0.344,1.297-0.344
	c0.308,0,0.609,0.085,0.904,0.252c0.293,0.169,0.548,0.444,0.764,0.826c0.215,0.382,0.386,0.902,0.51,1.56
	c0.123,0.658,0.185,1.491,0.185,2.501c0,0.581-0.023,1.224-0.07,1.927c-0.046,0.704-0.132,1.468-0.255,2.294L61.575,26.519z
	 M66.903,34.181l1.992-14.407c0.093-0.092,0.263-0.245,0.51-0.459c0.247-0.213,0.533-0.428,0.857-0.642
	c0.324-0.213,0.672-0.405,1.043-0.574c0.371-0.167,0.741-0.252,1.112-0.252c0.587,0,1.096,0.336,1.529,1.009
	c0.432,0.673,0.649,1.912,0.649,3.716c0,1.591-0.209,3.693-0.626,6.309c-0.417,2.615-1.151,5.942-2.201,9.979l0.88,0.229
	c1.081-4.099,1.83-7.471,2.247-10.117c0.417-2.645,0.625-4.779,0.625-6.4c0-1.071-0.085-1.965-0.255-2.684
	c-0.17-0.719-0.394-1.3-0.672-1.743c-0.278-0.444-0.61-0.757-0.996-0.941c-0.386-0.184-0.781-0.275-1.182-0.275
	c-0.618,0-1.212,0.153-1.784,0.459c-0.571,0.306-1.073,0.627-1.506,0.963l0.232-1.698l-0.927-0.138l-2.548,17.481L66.903,34.181z
	 M74.455,12.296c1.205,0.031,2.433-0.023,3.684-0.161c1.251-0.138,2.51-0.314,3.776-0.528c-0.341,1.53-0.695,3.205-1.066,5.024
	c-0.371,1.82-0.718,3.664-1.043,5.529c-0.324,1.867-0.588,3.678-0.788,5.437c-0.202,1.76-0.301,3.312-0.301,4.657
	c0,1.316,0.123,2.363,0.371,3.143c0.247,0.78,0.664,1.17,1.251,1.17c0.278,0,0.556-0.076,0.834-0.229l-0.463-0.78
	c-0.093,0.062-0.216,0.092-0.371,0.092c-0.248,0-0.425-0.305-0.533-0.918c-0.108-0.612-0.162-1.438-0.162-2.478
	c0-1.376,0.108-2.952,0.324-4.726c0.215-1.773,0.486-3.602,0.811-5.483s0.672-3.739,1.043-5.575
	c0.371-1.835,0.725-3.502,1.066-5.001c1.606-0.305,3.174-0.634,4.703-0.986c1.529-0.351,2.965-0.688,4.309-1.009
	c1.344-0.321,2.564-0.589,3.66-0.803c1.097-0.213,2.015-0.321,2.757-0.321c1.173,0,1.761,0.321,1.761,0.964h0.927
	c0-1.254-0.897-1.881-2.687-1.881c-0.865,0-2.016,0.145-3.452,0.436c-1.436,0.291-3.035,0.65-4.796,1.078
	c-1.082,0.275-2.209,0.544-3.382,0.803c-1.175,0.26-2.363,0.498-3.568,0.711c0.154-0.673,0.301-1.285,0.44-1.835
	c0.139-0.551,0.255-1.025,0.347-1.422c0.123-0.459,0.232-0.872,0.324-1.239l-0.88-0.229c-0.093,0.398-0.202,0.856-0.324,1.376
	c-0.124,0.428-0.263,0.941-0.417,1.537c-0.155,0.596-0.309,1.262-0.463,1.996c-1.297,0.245-2.595,0.429-3.892,0.551
	c-1.297,0.122-2.564,0.184-3.799,0.184V12.296z M107.305,4.405l-2.409,17.068c-0.093-0.428-0.232-0.81-0.417-1.147
	c-0.155-0.275-0.364-0.535-0.626-0.78c-0.263-0.245-0.61-0.367-1.042-0.367c-0.433,0-0.942,0.154-1.529,0.459
	c-0.587,0.306-1.282,0.918-2.085,1.835c-0.463,0.551-0.873,1.163-1.228,1.835c-0.355,0.674-0.656,1.384-0.904,2.133
	c-0.247,0.75-0.432,1.514-0.556,2.294c-0.124,0.78-0.185,1.522-0.185,2.225c0,1.347,0.239,2.471,0.718,3.372
	c0.479,0.902,1.228,1.353,2.247,1.353c0.401,0,0.965-0.138,1.691-0.413c0.725-0.275,1.49-0.718,2.294-1.331l-0.278,1.973l0.88,0.138
	l4.494-30.557L107.305,4.405z M104.896,21.472l-1.436,10.186c-0.772,0.674-1.529,1.193-2.27,1.56
	c-0.741,0.367-1.375,0.551-1.9,0.551c-0.71,0-1.228-0.367-1.552-1.101c-0.324-0.734-0.487-1.636-0.487-2.707
	c0-1.345,0.232-2.753,0.695-4.221c0.463-1.468,1.097-2.691,1.9-3.67c0.71-0.795,1.313-1.322,1.807-1.583
	c0.494-0.259,0.88-0.39,1.158-0.39c0.247,0,0.44,0.085,0.579,0.252c0.139,0.168,0.255,0.344,0.347,0.528
	c0.123,0.214,0.201,0.459,0.232,0.734L104.896,21.472z M111.568,35.007c-0.093,0.122-0.185,0.199-0.278,0.229
	c-0.093,0.031-0.17,0.062-0.232,0.092c-0.093,0.031-0.155,0.046-0.185,0.046c-0.309,0-0.556-0.497-0.741-1.491
	c-0.185-0.994-0.278-2.317-0.278-3.969c0-1.071,0.03-2.232,0.093-3.487c0.062-1.254,0.169-2.371,0.324-3.349h5.189
	c-0.063-1.162-0.217-2.218-0.463-3.166c-0.216-0.795-0.517-1.529-0.904-2.202c-0.387-0.673-0.888-1.009-1.506-1.009
	c-0.619,0-1.151,0.359-1.599,1.078c-0.448,0.719-0.827,1.682-1.135,2.891c-0.309,1.208-0.541,2.608-0.695,4.198
	c-0.155,1.591-0.232,3.273-0.232,5.047c0,0.887,0.039,1.728,0.116,2.523c0.076,0.795,0.185,1.491,0.324,2.088
	c0.139,0.596,0.324,1.071,0.556,1.422c0.232,0.351,0.502,0.528,0.811,0.528c0.308,0,0.586-0.069,0.834-0.206
	c0.246-0.138,0.417-0.284,0.51-0.436L111.568,35.007z M110.409,22.161c0.246-1.315,0.54-2.393,0.88-3.235
	c0.34-0.841,0.771-1.262,1.297-1.262c0.308,0,0.579,0.168,0.811,0.505c0.232,0.337,0.425,0.734,0.579,1.193
	c0.154,0.459,0.27,0.948,0.348,1.468c0.077,0.52,0.131,0.964,0.162,1.331H110.409z M115.321,9.498l-3.104,5.597l0.788,0.505
	l3.104-5.597L115.321,9.498z M120.139,35.604l-0.371,0.092c-0.247,0-0.417-0.306-0.51-0.918c-0.093-0.612-0.139-1.438-0.139-2.478
	c0-1.04,0.062-2.225,0.185-3.556c0.123-1.331,0.293-2.707,0.51-4.129c0.215-1.422,0.463-2.874,0.741-4.359
	c0.278-1.483,0.556-2.913,0.834-4.29c0.679-3.241,1.452-6.576,2.317-10.002l-0.88-0.229c-0.865,3.487-1.638,6.852-2.317,10.094
	c-0.278,1.407-0.556,2.852-0.834,4.336c-0.278,1.483-0.525,2.952-0.741,4.405s-0.394,2.837-0.533,4.152
	c-0.139,1.315-0.208,2.508-0.208,3.579c0,1.315,0.116,2.363,0.347,3.143c0.232,0.78,0.641,1.17,1.228,1.17
	c0.278,0,0.556-0.076,0.834-0.229L120.139,35.604z M125.652,35.971l2.085-16.38l-0.927-0.092l-2.039,16.334L125.652,35.971z
	 M128.015,17.114l0.602-4.359l-0.88-0.184l-0.602,4.405L128.015,17.114z M127.274,12.296c1.205,0.031,2.433-0.023,3.684-0.161
	c1.251-0.138,2.51-0.314,3.776-0.528c-0.341,1.53-0.695,3.205-1.066,5.024c-0.371,1.82-0.718,3.664-1.043,5.529
	c-0.324,1.867-0.588,3.678-0.788,5.437c-0.202,1.76-0.301,3.312-0.301,4.657c0,1.316,0.123,2.363,0.371,3.143
	c0.247,0.78,0.664,1.17,1.251,1.17c0.278,0,0.556-0.076,0.834-0.229l-0.463-0.78c-0.093,0.062-0.216,0.092-0.371,0.092
	c-0.248,0-0.425-0.305-0.533-0.918c-0.108-0.612-0.162-1.438-0.162-2.478c0-1.376,0.108-2.952,0.324-4.726
	c0.215-1.773,0.487-3.602,0.811-5.483s0.672-3.739,1.043-5.575c0.371-1.835,0.725-3.502,1.066-5.001
	c1.606-0.305,3.174-0.634,4.703-0.986c1.529-0.351,2.965-0.688,4.309-1.009c1.344-0.321,2.564-0.589,3.66-0.803
	c1.097-0.213,2.015-0.321,2.757-0.321c1.173,0,1.761,0.321,1.761,0.964h0.927c0-1.254-0.897-1.881-2.687-1.881
	c-0.865,0-2.016,0.145-3.452,0.436c-1.436,0.291-3.035,0.65-4.796,1.078c-1.082,0.275-2.209,0.544-3.382,0.803
	c-1.175,0.26-2.363,0.498-3.568,0.711c0.154-0.673,0.301-1.285,0.44-1.835c0.139-0.551,0.255-1.025,0.348-1.422
	c0.123-0.459,0.232-0.872,0.324-1.239l-0.88-0.229c-0.093,0.398-0.202,0.856-0.324,1.376c-0.124,0.428-0.263,0.941-0.417,1.537
	c-0.155,0.596-0.309,1.262-0.463,1.996c-1.297,0.245-2.595,0.429-3.892,0.551c-1.297,0.122-2.564,0.184-3.799,0.184V12.296z
	 M160.124,4.405l-2.409,17.068c-0.093-0.428-0.232-0.81-0.417-1.147c-0.155-0.275-0.364-0.535-0.626-0.78
	c-0.263-0.245-0.61-0.367-1.042-0.367c-0.433,0-0.942,0.154-1.529,0.459c-0.587,0.306-1.282,0.918-2.085,1.835
	c-0.463,0.551-0.873,1.163-1.228,1.835c-0.355,0.674-0.656,1.384-0.903,2.133c-0.247,0.75-0.432,1.514-0.556,2.294
	c-0.124,0.78-0.185,1.522-0.185,2.225c0,1.347,0.239,2.471,0.718,3.372c0.479,0.902,1.228,1.353,2.247,1.353
	c0.401,0,0.965-0.138,1.691-0.413c0.725-0.275,1.49-0.718,2.294-1.331l-0.278,1.973l0.88,0.138l4.494-30.557L160.124,4.405z
	 M157.714,21.472l-1.436,10.186c-0.772,0.674-1.529,1.193-2.27,1.56c-0.741,0.367-1.375,0.551-1.9,0.551
	c-0.71,0-1.228-0.367-1.552-1.101c-0.324-0.734-0.487-1.636-0.487-2.707c0-1.345,0.232-2.753,0.695-4.221
	c0.463-1.468,1.097-2.691,1.9-3.67c0.71-0.795,1.313-1.322,1.807-1.583c0.494-0.259,0.88-0.39,1.158-0.39
	c0.247,0,0.44,0.085,0.579,0.252c0.139,0.168,0.255,0.344,0.347,0.528c0.123,0.214,0.201,0.459,0.232,0.734L157.714,21.472z
	 M164.386,35.007c-0.093,0.122-0.185,0.2-0.278,0.229c-0.093,0.031-0.17,0.062-0.232,0.092c-0.093,0.031-0.155,0.046-0.185,0.046
	c-0.309,0-0.556-0.497-0.741-1.491c-0.185-0.994-0.278-2.317-0.278-3.969c0-1.071,0.031-2.232,0.093-3.487
	c0.062-1.254,0.169-2.371,0.324-3.349h5.189c-0.063-1.162-0.217-2.218-0.463-3.166c-0.216-0.795-0.517-1.529-0.903-2.202
	c-0.387-0.673-0.888-1.009-1.506-1.009c-0.619,0-1.151,0.36-1.599,1.078c-0.448,0.719-0.827,1.682-1.135,2.891
	c-0.309,1.208-0.541,2.608-0.695,4.198c-0.155,1.591-0.232,3.273-0.232,5.047c0,0.887,0.039,1.728,0.116,2.523
	c0.076,0.795,0.185,1.491,0.324,2.088c0.139,0.596,0.324,1.071,0.556,1.422c0.232,0.351,0.502,0.528,0.811,0.528
	s0.586-0.069,0.834-0.206c0.247-0.138,0.417-0.283,0.51-0.436L164.386,35.007z M163.228,22.161c0.247-1.315,0.54-2.393,0.88-3.235
	c0.34-0.841,0.771-1.262,1.297-1.262c0.308,0,0.579,0.168,0.811,0.505c0.232,0.337,0.425,0.734,0.579,1.193
	c0.154,0.459,0.27,0.948,0.347,1.468c0.077,0.52,0.131,0.964,0.162,1.331H163.228z M226.009,41.889
	c-2.718-0.061-5.328-0.138-7.83-0.229c-1.081-0.031-2.178-0.054-3.29-0.069c-1.112-0.015-2.201-0.038-3.267-0.069
	c-1.066-0.031-2.07-0.054-3.012-0.069c-0.942-0.015-1.768-0.023-2.479-0.023c-3.83,0-7.243,0.061-10.24,0.184
	c-2.996,0.122-5.668,0.306-8.016,0.551l3.475-22.528l-0.927-0.138l-1.853,12.158c-0.803,0.704-1.575,1.232-2.317,1.583
	c-0.741,0.353-1.328,0.528-1.761,0.528c-0.711,0-1.228-0.367-1.552-1.101c-0.324-0.734-0.486-1.636-0.486-2.707
	c0-1.345,0.232-2.753,0.695-4.221c0.463-1.468,1.097-2.691,1.9-3.67c0.71-0.795,1.313-1.322,1.807-1.583
	c0.494-0.259,0.88-0.39,1.158-0.39c0.247,0,0.44,0.085,0.579,0.252c0.139,0.168,0.255,0.344,0.348,0.528
	c0.124,0.214,0.201,0.459,0.232,0.734l0.927-0.138c-0.093-0.428-0.232-0.81-0.417-1.147c-0.155-0.275-0.364-0.535-0.625-0.78
	c-0.263-0.244-0.61-0.367-1.043-0.367c-0.433,0-0.942,0.154-1.529,0.459c-0.587,0.306-1.282,0.918-2.085,1.835
	c-0.463,0.551-0.873,1.163-1.228,1.835c-0.355,0.674-0.656,1.384-0.904,2.133c-0.247,0.75-0.433,1.514-0.556,2.294
	c-0.124,0.78-0.185,1.522-0.185,2.225c0,1.347,0.239,2.471,0.718,3.372c0.479,0.902,1.228,1.354,2.247,1.354
	c0.371,0,0.911-0.13,1.622-0.39c0.71-0.259,1.452-0.681,2.224-1.262l-1.39,9.222c-2.656,0.306-4.88,0.673-6.672,1.101
	c-1.791,0.428-3.236,0.902-4.332,1.422c-1.096,0.52-1.883,1.071-2.363,1.652c-0.479,0.58-0.718,1.193-0.718,1.835
	c0,0.581,0.178,1.155,0.533,1.721c0.356,0.566,0.834,1.124,1.436,1.675c0.602,0.551,1.274,1.085,2.016,1.606
	c0.741,0.52,1.514,1.009,2.317,1.468c1.853,1.071,3.969,2.095,6.348,3.074l2.224-14.774c2.317-0.245,4.989-0.421,8.016-0.528
	c3.027-0.107,6.487-0.161,10.379-0.161c2.842,0,5.9,0.038,9.174,0.115c3.274,0.076,6.826,0.191,10.657,0.344L226.009,41.889z
	 M173.791,48.267c0-0.52,0.216-1.032,0.649-1.537c0.433-0.505,1.158-0.98,2.178-1.422c1.019-0.444,2.356-0.849,4.008-1.216
	c1.653-0.367,3.714-0.688,6.186-0.963l-2.039,13.397c-2.07-0.856-3.907-1.743-5.514-2.661c-0.679-0.398-1.351-0.818-2.016-1.262
	c-0.664-0.444-1.251-0.902-1.761-1.376c-0.51-0.474-0.919-0.964-1.228-1.468C173.947,49.253,173.791,48.756,173.791,48.267
	 M198.44,20.28c0.308-0.122,0.618-0.184,0.927-0.184c0.618,0,1.058,0.375,1.321,1.124c0.262,0.749,0.394,1.705,0.394,2.868
	c0,1.101-0.124,2.287-0.371,3.556c-0.247,1.269-0.602,2.448-1.066,3.533c-0.463,1.086-1.027,1.989-1.691,2.707
	c-0.665,0.719-1.413,1.078-2.247,1.078c-0.463,0-0.804-0.436-1.019-1.308c-0.216-0.872-0.324-1.965-0.324-3.28
	c0-1.223,0.1-2.523,0.301-3.9c0.201-1.376,0.502-2.684,0.903-3.923c0.401-1.239,0.888-2.34,1.46-3.303
	c0.571-0.964,1.212-1.644,1.923-2.042l-0.463-0.78c-0.803,0.429-1.514,1.162-2.131,2.202c-0.619,1.04-1.143,2.218-1.575,3.533
	c-0.432,1.315-0.764,2.692-0.996,4.129c-0.232,1.438-0.347,2.799-0.347,4.083c0,1.56,0.178,2.868,0.533,3.923
	c0.354,1.055,0.934,1.583,1.738,1.583c0.958,0,1.822-0.39,2.595-1.17c0.771-0.78,1.436-1.759,1.992-2.936
	c0.556-1.178,0.98-2.455,1.274-3.831c0.293-1.376,0.44-2.661,0.44-3.854c0-1.438-0.208-2.615-0.626-3.533
	c-0.417-0.918-1.089-1.376-2.016-1.376c-0.432,0-0.865,0.108-1.297,0.321L198.44,20.28z M206.595,14.636
	c-1.082,4.099-1.83,7.472-2.247,10.117c-0.417,2.646-0.626,4.779-0.626,6.4c0,1.071,0.085,1.973,0.255,2.707
	c0.169,0.734,0.394,1.315,0.672,1.743c0.278,0.428,0.602,0.734,0.973,0.918c0.371,0.184,0.771,0.275,1.205,0.275
	c0.463,0,0.91-0.092,1.344-0.275c0.432-0.184,0.834-0.39,1.205-0.619c0.371-0.229,0.687-0.459,0.95-0.688
	c0.262-0.229,0.456-0.405,0.579-0.528l-0.324,2.386l0.927,0.138l2.78-18.903l-1.019-0.184l-2.317,16.196l-0.51-0.505
	c-0.402,0.398-0.804,0.75-1.205,1.055c-0.341,0.245-0.718,0.475-1.135,0.688c-0.417,0.214-0.842,0.321-1.274,0.321
	c-0.588,0-1.097-0.336-1.529-1.009c-0.433-0.672-0.649-1.911-0.649-3.716c0-1.59,0.208-3.693,0.626-6.309
	c0.417-2.615,1.151-5.942,2.201-9.979L206.595,14.636z M216.741,36.063l1.714-14.453c0.371-0.306,0.811-0.603,1.32-0.895
	c0.51-0.291,1.027-0.436,1.552-0.436c0.309,0,0.618,0.084,0.927,0.252c0.308,0.168,0.571,0.459,0.788,0.872
	c0.215,0.413,0.394,0.979,0.533,1.698c0.139,0.719,0.208,1.614,0.208,2.684l0.927-0.092c0-1.346-0.116-2.432-0.348-3.258
	c-0.232-0.826-0.517-1.468-0.857-1.927c-0.34-0.459-0.703-0.765-1.089-0.918c-0.387-0.153-0.749-0.229-1.089-0.229
	c-0.494,0-0.966,0.107-1.413,0.321c-0.448,0.214-0.873,0.444-1.274,0.688l0.278-2.523l-0.973-0.138l-2.178,18.261L216.741,36.063z
	 M226.564,34.181l2.131-15.187c0.34-0.275,0.741-0.535,1.205-0.78c0.463-0.245,0.91-0.367,1.344-0.367
	c0.586,0,1.096,0.336,1.529,1.009c0.432,0.673,0.649,1.912,0.649,3.716c0,1.591-0.208,3.693-0.626,6.309
	c-0.417,2.615-1.151,5.942-2.201,9.979l0.88,0.229c1.081-4.099,1.83-7.471,2.247-10.117c0.417-2.645,0.626-4.779,0.626-6.4
	c0-0.612-0.032-1.147-0.093-1.606c-0.063-0.459-0.139-0.887-0.232-1.285c0.123-0.122,0.308-0.291,0.556-0.505
	c0.247-0.214,0.524-0.421,0.834-0.619c0.308-0.199,0.632-0.367,0.973-0.505c0.339-0.138,0.679-0.206,1.019-0.206
	c0.586,0,1.096,0.336,1.529,1.009c0.432,0.673,0.649,1.912,0.649,3.716c0,1.591-0.209,3.693-0.625,6.309
	c-0.417,2.615-1.151,5.942-2.201,9.979l0.88,0.229c1.081-4.099,1.83-7.471,2.247-10.117c0.417-2.645,0.626-4.779,0.626-6.4
	c0-1.071-0.086-1.965-0.255-2.684c-0.17-0.719-0.394-1.3-0.672-1.743c-0.278-0.444-0.61-0.757-0.996-0.941
	c-0.387-0.184-0.781-0.275-1.182-0.275c-0.711,0-1.406,0.206-2.085,0.619c-0.68,0.413-1.221,0.788-1.622,1.124
	c-0.278-0.642-0.633-1.093-1.066-1.353c-0.433-0.259-0.897-0.39-1.39-0.39c-0.433,0-0.842,0.076-1.228,0.229
	c-0.387,0.154-0.764,0.352-1.135,0.596l0.139-1.101l-0.927-0.138l-0.278,1.973c-0.155,0.122-0.286,0.229-0.394,0.321
	c-0.109,0.092-0.193,0.168-0.255,0.229l-0.232,0.229l0.649,0.642l-2.039,14.085L226.564,34.181z M249.545,26.519
	c-1.082,0-2.078,0.214-2.989,0.642c-0.911,0.429-1.699,0.964-2.363,1.606c-0.664,0.642-1.189,1.347-1.575,2.111
	c-0.387,0.765-0.579,1.499-0.579,2.202c0,0.795,0.286,1.468,0.857,2.019c0.571,0.551,1.521,0.826,2.85,0.826
	c0.803,0,1.683-0.107,2.641-0.321l-0.185-0.918c-0.958,0.214-1.776,0.321-2.456,0.321c-0.989,0-1.699-0.184-2.131-0.551
	c-0.433-0.367-0.649-0.826-0.649-1.376c0-0.58,0.169-1.208,0.51-1.881c0.34-0.672,0.803-1.285,1.39-1.835
	c0.586-0.551,1.281-1.009,2.085-1.376c0.803-0.367,1.668-0.551,2.595-0.551c0.123,0,0.262,0.008,0.417,0.023
	c0.154,0.016,0.34,0.039,0.556,0.069c-0.216,1.407-0.494,2.982-0.834,4.726c-0.341,1.743-0.772,3.716-1.297,5.919l0.973,0.184
	c0.957-3.915,1.614-7.249,1.969-10.002c0.354-2.753,0.533-4.726,0.533-5.919c0-1.193-0.093-2.179-0.278-2.959
	c-0.185-0.78-0.425-1.399-0.718-1.858c-0.294-0.459-0.641-0.78-1.043-0.964c-0.402-0.184-0.819-0.275-1.251-0.275
	c-0.526,0-1.042,0.122-1.552,0.367c-0.51,0.245-0.981,0.521-1.413,0.826c-0.494,0.337-0.958,0.72-1.39,1.147l0.695,0.642
	c0.401-0.367,0.803-0.703,1.205-1.009c0.34-0.245,0.725-0.482,1.158-0.711c0.432-0.229,0.864-0.344,1.297-0.344
	c0.308,0,0.609,0.085,0.904,0.252c0.293,0.169,0.548,0.444,0.765,0.826c0.215,0.382,0.386,0.902,0.51,1.56
	c0.123,0.658,0.185,1.491,0.185,2.501c0,0.581-0.023,1.224-0.07,1.927c-0.046,0.704-0.132,1.468-0.255,2.294L249.545,26.519z
	 M254.872,34.181l1.992-14.407c0.093-0.092,0.263-0.245,0.51-0.459c0.247-0.213,0.533-0.428,0.857-0.642
	c0.324-0.213,0.672-0.405,1.043-0.574c0.371-0.167,0.741-0.252,1.112-0.252c0.587,0,1.096,0.336,1.529,1.009
	c0.432,0.673,0.649,1.912,0.649,3.716c0,1.591-0.208,3.693-0.626,6.309c-0.417,2.615-1.151,5.942-2.201,9.979l0.88,0.229
	c1.081-4.099,1.83-7.471,2.247-10.117c0.417-2.645,0.626-4.779,0.626-6.4c0-1.071-0.085-1.965-0.255-2.684
	c-0.17-0.719-0.394-1.3-0.672-1.743c-0.278-0.444-0.61-0.757-0.996-0.941c-0.386-0.184-0.781-0.275-1.181-0.275
	c-0.618,0-1.212,0.153-1.784,0.459c-0.571,0.306-1.073,0.627-1.506,0.963l0.232-1.698l-0.927-0.138l-2.548,17.481L254.872,34.181z
	 M275.629,4.405l-2.41,17.068c-0.092-0.428-0.231-0.81-0.416-1.147c-0.155-0.275-0.364-0.535-0.625-0.78
	c-0.263-0.245-0.611-0.367-1.043-0.367c-0.433,0-0.943,0.154-1.529,0.459c-0.587,0.306-1.283,0.918-2.085,1.835
	c-0.464,0.551-0.873,1.163-1.228,1.835c-0.355,0.674-0.657,1.384-0.903,2.133c-0.248,0.75-0.433,1.514-0.556,2.294
	c-0.124,0.78-0.185,1.522-0.185,2.225c0,1.347,0.239,2.471,0.717,3.372c0.478,0.902,1.228,1.353,2.247,1.353
	c0.402,0,0.965-0.138,1.691-0.413c0.725-0.275,1.49-0.718,2.294-1.331l-0.278,1.973l0.88,0.138l4.494-30.557L275.629,4.405z
	 M273.219,21.472l-1.436,10.186c-0.772,0.674-1.53,1.193-2.27,1.56c-0.742,0.367-1.375,0.551-1.9,0.551
	c-0.71,0-1.227-0.367-1.551-1.101c-0.324-0.734-0.487-1.636-0.487-2.707c0-1.345,0.232-2.753,0.695-4.221
	c0.463-1.468,1.097-2.691,1.9-3.67c0.71-0.795,1.312-1.322,1.807-1.583c0.493-0.259,0.881-0.39,1.158-0.39
	c0.247,0,0.44,0.085,0.579,0.252c0.139,0.168,0.255,0.344,0.347,0.528c0.124,0.214,0.201,0.459,0.232,0.734L273.219,21.472z
	 M278.316,35.971l2.085-16.38l-0.927-0.092l-2.039,16.334L278.316,35.971z M280.679,17.114l0.602-4.359l-0.881-0.184l-0.602,4.405
	L280.679,17.114z M282.3,35.145c0.618,0.673,1.312,1.162,2.085,1.468c0.771,0.305,1.405,0.459,1.9,0.459
	c1.05,0,1.93-0.367,2.641-1.101c0.71-0.734,1.066-1.819,1.066-3.258c0-1.162-0.34-2.569-1.019-4.221
	c-0.68-1.652-1.76-3.471-3.243-5.46c-0.433-0.551-0.703-1.071-0.811-1.56c-0.109-0.489-0.162-0.933-0.162-1.331
	c0-0.52,0.123-0.933,0.371-1.239c0.247-0.306,0.571-0.459,0.973-0.459c0.432,0,0.896,0.168,1.39,0.505
	c0.494,0.337,0.957,0.887,1.39,1.652l0.788-0.459c-0.525-0.918-1.104-1.583-1.738-1.996c-0.633-0.413-1.243-0.619-1.83-0.619
	c-0.649,0-1.189,0.229-1.621,0.688c-0.433,0.459-0.649,1.101-0.649,1.927c0,0.489,0.076,1.032,0.232,1.629
	c0.154,0.596,0.463,1.201,0.926,1.812c1.483,1.958,2.533,3.701,3.151,5.23c0.618,1.53,0.927,2.829,0.927,3.9
	c0,1.132-0.263,1.988-0.787,2.569c-0.526,0.58-1.191,0.872-1.993,0.872c-0.525,0-1.089-0.146-1.691-0.436
	c-0.602-0.291-1.182-0.741-1.738-1.354L282.3,35.145z M296.108,35.007c-0.093,0.122-0.185,0.2-0.278,0.229
	c-0.093,0.031-0.17,0.062-0.232,0.092c-0.093,0.031-0.155,0.046-0.185,0.046c-0.309,0-0.556-0.497-0.741-1.491
	c-0.185-0.994-0.278-2.317-0.278-3.969c0-1.071,0.03-2.232,0.093-3.487c0.062-1.254,0.17-2.371,0.324-3.349H300
	c-0.062-1.162-0.217-2.218-0.463-3.166c-0.216-0.795-0.518-1.529-0.904-2.202c-0.387-0.673-0.888-1.009-1.506-1.009
	c-0.619,0-1.151,0.36-1.599,1.078c-0.448,0.719-0.827,1.682-1.135,2.891c-0.309,1.208-0.541,2.608-0.695,4.198
	c-0.155,1.591-0.232,3.273-0.232,5.047c0,0.887,0.039,1.728,0.116,2.523c0.077,0.795,0.185,1.491,0.324,2.088
	c0.139,0.596,0.324,1.071,0.556,1.422c0.232,0.351,0.501,0.528,0.811,0.528c0.308,0,0.586-0.069,0.834-0.206
	c0.247-0.138,0.417-0.283,0.51-0.436L296.108,35.007z M294.95,22.161c0.247-1.315,0.54-2.393,0.88-3.235
	c0.34-0.841,0.771-1.262,1.297-1.262c0.308,0,0.579,0.168,0.811,0.505c0.232,0.337,0.425,0.734,0.579,1.193
	c0.154,0.459,0.27,0.948,0.348,1.468c0.077,0.52,0.131,0.964,0.162,1.331H294.95z"/>
</svg>
